<?xml version="1.0" encoding="UTF-8"?>
<svg id="Ebene_1" data-name="Ebene 1" xmlns="http://www.w3.org/2000/svg" viewBox="0 0 1920 1920">
  <defs>
    <style>
      .cls-1 {
        fill: #f5ce44;
      }

      .cls-2 {
        fill: #3b9134;
      }

      .cls-3, .cls-4 {
        fill: #2cb5cf;
      }

      .cls-3, .cls-5 {
        stroke: #00505b;
        stroke-width: 9.45px;
      }

      .cls-3, .cls-5, .cls-6 {
        stroke-miterlimit: 10;
      }

      .cls-7 {
        fill: #00505b;
      }

      .cls-8 {
        fill: #fff;
        font-family: AllRoundGothic-Bold, 'All Round Gothic';
        font-size: 89.52px;
        font-weight: 700;
      }

      .cls-5, .cls-6 {
        fill: none;
      }

      .cls-9 {
        fill: #beedf4;
      }

      .cls-10 {
        fill: #1d93a8;
      }

      .cls-6 {
        stroke: #2cb5cf;
        stroke-width: 15.12px;
      }
    </style>
  </defs>
  <rect class="cls-1" x="-38.07" y=".58" width="1964.35" height="1943.57"/>
  <g>
    <rect class="cls-6" x="527.41" y="613.02" width="859.55" height="859.55"/>
    <g>
      <g>
        <g>
          <path class="cls-4" d="M804.09,1470.05c-13.86-83.91,16.75-155.12,68.33-222.74,51.59-67.62,124.58-116.62,202.54-150.62,170.86-74.52,254.78-24.52,356.29-26.46,20.51,35.22,57.42,110.72,78.95,143.45-24.53,58.54-61.95,111.65-108.6,156.36,21.24,16.18,47.14,61.26,65.76,84.35-26.41,21.75-80.38,63.21-80.38,63.21,0,0-35.08-48.74-61.29-94.37-20.35,11.92-60.75,39.34-74.78,47.86-78.92,0-366.93-1.05-446.81-1.05Z"/>
          <g>
            <path class="cls-3" d="M1191.66,1185.09c-40.79-56.55-49.54-134.68-22.29-198.86,28.94,5.51,53.38,25.79,70.21,49.97,16.84,24.18,27.1,52.22,37.13,79.92"/>
            <path class="cls-3" d="M1314.6,1094.27c-1.75-39.18,7.34-78.79,25.99-113.29,26.04,26.57,44.27,60.71,51.86,97.13"/>
          </g>
          <g>
            <path class="cls-9" d="M977.69,1242.2c-33.46-11.57-62.32-36.35-48.19-78.06,8.18-24.16,36.5-38.83,61.42-33.37,24.91,5.46,44.09,29.08,46.26,54.49l-59.5,56.94Z"/>
            <path class="cls-9" d="M951.09,1048.89c.29,16.77,4.4,34.55,17.79,44.66,13.39,10.1,33.68,10.89,46.69.3,8.04-6.55,12.72-16.51,14.8-26.67,3.29-16.08.2-33.92-10.5-46.36-10.7-12.44-69.65-22.57-68.77,28.08Z"/>
            <path class="cls-9" d="M853.03,1080.56c-8.04,10.65-11.32,24.76-8.81,37.87,2.51,13.11,10.77,25.01,22.17,31.94,9.6,5.84,22.27,7.99,32.05,2.45,6.82-3.86,11.32-10.89,14.1-18.22,4.4-11.59,5.01-24.78.63-36.38-4.38-11.6-13.99-21.35-25.88-24.86-11.89-3.51-27.48-1.8-34.26,7.19Z"/>
            <path class="cls-9" d="M882.83,896.92c-19.36,8.12-34.43,26.57-36.93,47.41-2.5,20.84,8.51,43.07,27.34,52.37,18.82,9.29,44.16,3.85,56.36-13.24,10.51-14.72,10.45-34.77,5.39-52.14-3.2-10.99-8.47-21.79-17.31-29.07-8.84-7.28-21.94-10.74-34.84-5.33Z"/>
          </g>
          <g>
            <polygon class="cls-7" points="1325.67 1423.24 1347.1 1458.47 1414.79 1382.82 1401.59 1370.05 1325.67 1423.24"/>
            <path class="cls-7" d="M1187.41,1188.58s-33.3-17.4-55.96-68.02c-8.98-20.06-8.36-42.46-8.36-42.46l27.54-8.31s9.29,58.49,17.49,76.34c8.2,17.85,19.3,42.45,19.3,42.45Z"/>
            <path class="cls-7" d="M1310.43,1094.27s-17.79-12.14-20.23-37.31l23.56,2.25-3.33,35.06Z"/>
          </g>
          <polyline class="cls-4" points="1240.96 1383.48 1316.71 1529.66 1227.94 1571.19 1155.47 1432.69"/>
          <g>
            <path class="cls-5" d="M1510.18,1205.61c-18.78,70.83-80.37,143.33-140.02,189.33-33.44,25.78-54.07,38.97-91.32,58.91"/>
            <path class="cls-5" d="M936.62,1298.17c36.39-57.52,86.22-106.48,144.37-141.86"/>
            <line class="cls-3" x1="1240.96" y1="1383.48" x2="1316.71" y2="1529.66"/>
            <path class="cls-5" d="M1305.33,1221.25c-4.16-7.22-8.42-14.74-9.1-23.04-.68-8.3,3.31-17.61,11.18-20.32,6.84-2.35,14.61.96,19.56,6.24,4.95,5.28,7.68,12.21,10.3,18.96"/>
          </g>
          <g>
            <path class="cls-10" d="M1423.94,1062.33c-71.94,39.04,17.99,183.9,81.97,154.62,51-23.34-11.12-193.07-81.97-154.62Z"/>
            <g>
              <path class="cls-7" d="M1453.92,1150.36c4.94,5.19,9.48,2.77,9.26-1.78-.29-6.09-14.96-30.79-19.59-18.33-1.6,4.29,5.25,14.77,10.33,20.1Z"/>
              <path class="cls-7" d="M1462.03,1118.45c-2.59,7.4,9.4,24.73,16.93,20.5,7.7-4.33-12.79-32.33-16.93-20.5Z"/>
            </g>
          </g>
        </g>
        <path class="cls-2" d="M1237.73,736.93c24.17-89.29,155.81-102.09,192.28-12.96,40.91,99.99-29.39,155.44-105.82,153.14-76.43-2.3-104.46-73.68-86.46-140.18Z"/>
        <g>
          <path class="cls-7" d="M408.8,551.58c21.66,53.52-10.87,303.6-71.76,323.89-60.89,20.29,4.39-331.7,71.76-323.89Z"/>
          <path class="cls-10" d="M367.9,593.2c11.66,2.16,107,22.94,124.48,26.39,48.61-50.41,77.03-74.31,125.09-125.24,25.74-27.27,64.42-36.41,72.62-20.82,13.88,26.41-22.44,59.79-34.58,85.69,35.69-39.33,76.79-84.8,129.66-94.69,42.9-8.02,29.94,47.37,8.31,75.64,24.48-22.58,42.53-36.14,70.41-33.86,45.45,3.73,30.9,47.09,3.99,70.46-37.75,32.78-72.96,60.11-107.67,90.39,23.5,2.87,44.44,18.17,56.36,38.62,19.53,33.5,1.76,105.75-43.69,92.53-21.5-6.25-23.21-39.15-42.59-50.37-47.5-27.5-96.69,42.78-102.64,86.1-8,58.23,55.54,101.79,99.35,52.07,33.37-37.87,77.99,17.37,22.78,61.69-18.09,14.52-37.66,28.03-60.17,33.64-39.57,9.86-81.62-3.34-116.92-23.76-35.3-20.42-66.03-47.84-100.25-70.03-34.22-22.19-146.96-61.35-184.53-59.02-21.14-84.96-.74-177.45,80-235.42Z"/>
          <path class="cls-5" d="M681.74,468.49c11.64,8.07,29.2,18.84-64.08,155.71"/>
          <path class="cls-5" d="M798.79,464.18c25.77,11.63,39.13,34.08-85.07,174.8"/>
          <path class="cls-9" d="M726.32,817.43c-27.11,27.85,22.38,93.38,68.91,63.02,46.53-30.36-2.13-131.61-68.91-63.02Z"/>
          <path class="cls-9" d="M330.19,876.32c-55.41-103.56-.99-276.55,78.62-324.73-17.2-13.9-58.9-5.23-74.04,3.9-27.66,16.68-125.71,158.4-54.64,299.97,10.88,21.67,50.07,20.87,50.07,20.87Z"/>
        </g>
        <g>
          <path class="cls-5" d="M966.76,864.65c30.83-71.65,65.5-141.65,103.81-209.6"/>
          <path class="cls-5" d="M1034.5,872.45c25.79-23.24,51.58-46.47,77.37-69.71"/>
          <path class="cls-5" d="M1090.88,938.82c41.26-16.78,82.53-33.57,123.79-50.35"/>
          <path class="cls-5" d="M770.7,1239.73c-23.16,22.2-46.31,44.4-69.47,66.6"/>
          <path class="cls-5" d="M733.94,1169.44c-63.42,30.14-125.1,63.92-184.65,101.11"/>
        </g>
      </g>
      <text class="cls-8" transform="translate(1315.02 801.97)"><tspan x="0" y="0">2</tspan></text>
    </g>
  </g>
</svg>