<?xml version="1.0" encoding="UTF-8"?>
<svg id="Ebene_1" data-name="Ebene 1" xmlns="http://www.w3.org/2000/svg" viewBox="0 0 1920 1920">
  <defs>
    <style>
      .cls-1 {
        fill: #f5ce44;
      }

      .cls-2 {
        fill: #3b9134;
      }

      .cls-3 {
        fill: #00505b;
      }

      .cls-4, .cls-5 {
        fill: #fff;
      }

      .cls-6, .cls-7 {
        stroke: #00505b;
        stroke-width: 9.45px;
      }

      .cls-6, .cls-7, .cls-8 {
        stroke-miterlimit: 10;
      }

      .cls-6, .cls-9 {
        fill: #1d93a8;
      }

      .cls-5 {
        font-family: AllRoundGothic-Bold, 'All Round Gothic';
        font-size: 89.52px;
        font-weight: 700;
      }

      .cls-7, .cls-8 {
        fill: none;
      }

      .cls-10 {
        fill: #beedf4;
      }

      .cls-8 {
        stroke: #2cb5cf;
        stroke-width: 15.12px;
      }
    </style>
  </defs>
  <rect class="cls-1" x="-38.07" y=".58" width="1964.35" height="1943.57"/>
  <g>
    <rect class="cls-8" x="486.56" y="614.87" width="859.55" height="859.55"/>
    <g>
      <g>
        <path class="cls-9" d="M410.28,982.67c135.95-98.96,288.44-175.13,449.21-224.4,7.93-2.43,16.25-4.82,24.39-3.29,8.15,1.53,15.94,8.31,15.68,16.59-.22,6.88-5.6,12.37-10.8,16.87-15.32,13.23-32.39,24.44-51.33,37.23-7.26,68.2-26.16,135.14-57.54,196.44-113.84,76.11-246.12,116.49-369.6,180.68-3.01-56.97-8.93-91.99,0-220.13Z"/>
        <path class="cls-10" d="M755.37,1039.25c42.21-37.55,116.47-41.25,197.9-2.97,81.43,38.28,196.49-23.8,227.02-55.27-7.18-34.92-45.95-220.83-45.95-220.83l1.19-2.97c-30.53,31.47-145.59,93.55-227.02,55.27-81.43-38.28-151.96-47-197.9-2.25,13.67,67.78,44.76,229.02,44.76,229.02Z"/>
        <line class="cls-7" x1="817.42" y1="806.98" x2="847.9" y2="966.97"/>
        <path class="cls-6" d="M636.21,895.98c66.65-12.34,154.22-18.19,156.92,8.46,2.69,26.65-144.93,69.11-144.93,69.11"/>
        <g>
          <path class="cls-3" d="M886.88,925.66l13.76.84c.5,3.53,2.85,6.19,6.78,6.43,4.65.28,7.52-2.68,7.86-8.31.29-4.74-2.2-8.03-6.85-8.32-3.31-.2-5.64,1.36-6.97,3.88l-11.75-4.4,6.02-30.85,31.1,1.9-.74,12.06-20.73-1.27-2.26,10.63c2.3-2.46,5.15-3.45,9.17-3.21,9.38.57,17.33,8.42,16.6,20.39-.79,12.87-9.88,20.74-22.22,19.99-11.62-.71-19.64-8.92-19.78-19.78Z"/>
          <path class="cls-3" d="M933.21,940.8c1.25-4.76,5.73-7.38,10.49-6.13,4.76,1.25,7.38,5.73,6.13,10.49s-5.73,7.38-10.49,6.13c-4.76-1.25-7.38-5.73-6.13-10.49Z"/>
          <path class="cls-3" d="M962.64,941.62l-.21-18.8c-.14-12.71,8.36-21.13,20.71-21.27,12.35-.14,21.04,8.09,21.18,20.8l.21,18.8c.14,12.71-8.36,21.13-20.71,21.27-12.35.14-21.04-8.09-21.18-20.8ZM991.11,941.3l-.21-18.8c-.06-5.37-2.78-8.47-7.61-8.42-4.83.05-7.48,3.22-7.42,8.59l.21,18.8c.06,5.37,2.78,8.47,7.61,8.42,4.83-.05,7.48-3.22,7.42-8.59Z"/>
          <path class="cls-3" d="M1018.53,943.69l-2.46-18.64c-1.67-12.6,5.76-21.98,18.01-23.6,12.25-1.62,21.86,5.51,23.52,18.11l2.46,18.64c1.67,12.6-5.76,21.98-18.01,23.6-12.25,1.62-21.86-5.51-23.52-18.11ZM1046.75,939.96l-2.46-18.63c-.7-5.33-3.78-8.08-8.57-7.45-4.79.63-7.05,4.09-6.34,9.42l2.46,18.64c.7,5.32,3.78,8.08,8.57,7.45,4.79-.63,7.05-4.09,6.34-9.42Z"/>
          <path class="cls-3" d="M1074.77,929.7l-4.13-18.34c-2.79-12.4,3.76-22.41,15.81-25.12,12.05-2.71,22.26,3.52,25.05,15.92l4.13,18.34c2.79,12.4-3.76,22.41-15.81,25.12-12.05,2.71-22.26-3.52-25.05-15.92ZM1102.54,923.45l-4.13-18.34c-1.18-5.24-4.49-7.71-9.2-6.64-4.72,1.06-6.65,4.71-5.47,9.95l4.13,18.34c1.18,5.24,4.49,7.71,9.2,6.64,4.72-1.06,6.65-4.71,5.47-9.95Z"/>
        </g>
        <path class="cls-3" d="M650.63,977.53s76.12-11.36,101.51,44.99c-12.07-62.3-14.74-76.05-14.74-76.05l-86.77,31.06Z"/>
      </g>
      <path class="cls-2" d="M506.92,668.49c-93.18,10.28-144.52,154.85-15.91,176.59,128.61,21.74,147.31-191.09,15.91-176.59Z"/>
      <g>
        <path class="cls-2" d="M1397.77,1400.01c-45.93-23.98-217.05-66.84-321.38-69.55-104.33-2.72-256.03-4.38-208.06-58.16-51.42-17.99-38.53-54.74,21.13-57.28-27.16-25.54-16.72-49.45,46.62-41.05,63.34,8.39,132.87,26.7,139.1,8.99,6.24-17.71-53.53-23.1-46.31-44.68,9.89-29.58,59.46-8.23,133.27,19.17,66.29,24.62,119.9,57.46,226.03,74.07,14.02,56.91,9.59,168.48,9.59,168.48Z"/>
        <path class="cls-3" d="M1397.77,1400.01c.66-32.36.3-43.94.66-56.8-6.16,37.95-62.12,23.48-151.81,11.41,106.85,28.14,119.61,30.4,151.15,45.39Z"/>
        <path class="cls-7" d="M865.68,1275.22s9.12-14.49,147.57-4.12"/>
        <path class="cls-7" d="M889.19,1214.67c42.36-1.18,67.74-.05,134.05,12.64"/>
      </g>
      <g>
        <path class="cls-4" d="M1004.86,689.45s148.67-213.83,203.23-158.95c34.03,34.23-203.23,158.95-203.23,158.95Z"/>
        <path class="cls-4" d="M1260.85,800.95s153.96-113.6,178.95-62.53c15.58,31.86-178.95,62.53-178.95,62.53Z"/>
        <path class="cls-4" d="M738.85,1202.8s-15.98,179.06-69.96,161.21c-33.67-11.13,69.96-161.21,69.96-161.21Z"/>
        <path class="cls-4" d="M641.97,1230.08s-217.5,256.66-267.51,195.6c-51.26-62.59,267.51-195.6,267.51-195.6Z"/>
      </g>
      <text class="cls-5" transform="translate(482.24 784.48)"><tspan x="0" y="0">3</tspan></text>
    </g>
  </g>
</svg>