<?xml version="1.0" encoding="UTF-8"?>
<svg id="Ebene_1" data-name="Ebene 1" xmlns="http://www.w3.org/2000/svg" xmlns:xlink="http://www.w3.org/1999/xlink" viewBox="0 0 1920 1920">
  <defs>
    <style>
      .cls-1 {
        fill: #f5ce44;
      }

      .cls-2 {
        fill: #3b9134;
      }

      .cls-3 {
        fill: #0f7282;
      }

      .cls-4 {
        fill: #00505b;
      }

      .cls-5 {
        fill: #2cb5cf;
      }

      .cls-6, .cls-7 {
        fill: #fff;
      }

      .cls-7 {
        font-family: AllRoundGothic-Bold, 'All Round Gothic';
        font-size: 89.52px;
        font-weight: 700;
      }

      .cls-8 {
        stroke: #00505b;
        stroke-width: 9.45px;
      }

      .cls-8, .cls-9 {
        fill: none;
        stroke-miterlimit: 10;
      }

      .cls-10 {
        fill: #beedf4;
      }

      .cls-9 {
        stroke: #2cb5cf;
        stroke-width: 15.12px;
      }

      .cls-11 {
        clip-path: url(#clippath);
      }
    </style>
    <clipPath id="clippath">
      <path class="cls-3" d="M211.3,1061.58c83.18,125.38,246.2,250.37,361.31,251.66,4.81-9.23,6.64-11,11.17-25.76-117.74-71.29-221.83-165.03-305.09-276.93-12.59,4.97-25.29,10-36.49,17.6-11.2,7.6-20.93,18.08-30.89,33.43Z"/>
    </clipPath>
  </defs>
  <rect class="cls-1" x="-38.07" y=".58" width="1964.35" height="1943.57"/>
  <g>
    <rect class="cls-9" x="551.92" y="614.87" width="859.55" height="859.55"/>
    <g>
      <g>
        <g>
          <path class="cls-10" d="M777.83,1467.22s-141.35-369.86-166.88-651.45c153.32-95.51,590.13-257.36,590.13-257.36l122.65,387.05-371.97,521.77h-173.92Z"/>
          <g>
            <path class="cls-8" d="M712.06,913.48c108.37-57.3,221.39-105.81,337.57-144.92"/>
            <path class="cls-8" d="M756.26,1025.78c55.33-23.38,110.65-46.76,165.98-70.14"/>
            <path class="cls-8" d="M802,1130.52c29.49-13.07,58.98-26.14,88.47-39.21"/>
            <path class="cls-8" d="M814.13,1223.16c98.27-43.83,198.94-82.28,301.41-115.12"/>
            <path class="cls-8" d="M837.05,1267.93c99.25-43.44,200.67-81.91,303.77-115.2"/>
            <path class="cls-8" d="M838.05,1321.18c62.56-24.07,125.12-48.14,187.68-72.21"/>
          </g>
        </g>
        <g>
          <path class="cls-6" d="M842.14,1466.78c86.52-237.68,186.88-439.06,359.74-653.92,154.85,15.02,326.85,62.57,510.8,142.78-182.84,212.04-270.64,314.32-382.08,511.14-191.02,1.86-304.62.23-488.46,0Z"/>
          <g>
            <path class="cls-8" d="M1220.75,898.08c110.72,23.44,204.29,52.71,307.75,93.62"/>
            <path class="cls-8" d="M1188.57,955.64c110.72,23.44,204.29,52.71,307.75,93.62"/>
            <path class="cls-8" d="M1149.77,1009c88.57,17.74,217.67,65.82,289.19,92.13"/>
            <path class="cls-8" d="M1059.79,1155.83c89.24,23.33,240.64,80.91,306.44,114.42"/>
            <path class="cls-8" d="M1016.62,1253.23c-9.23,21.24-18.46,42.49-27.69,63.73,27.74,8.68,49,14.98,75.44,28.9,13.26-26.36,18.97-41.87,30.72-65.21-23.58-9.77-47.17-19.54-78.47-27.42Z"/>
            <path class="cls-8" d="M1126.72,1296.01c35.29,13.46,69.91,28.7,103.68,45.63"/>
          </g>
          <path class="cls-8" d="M842.14,1466.78c86.52-237.68,186.88-439.06,359.74-653.92"/>
        </g>
        <path class="cls-2" d="M475.96,726.91c-34.46,33.52-36.03,102.31,5,138.21,31.29,27.38,87.78,31.15,122.53,8.64,36.95-23.94,45.89-100.16,21.71-137.9-20.34-31.74-104.48-52.46-149.23-8.94Z"/>
        <g>
          <g>
            <path class="cls-3" d="M211.3,1061.58c83.18,125.38,246.2,250.37,361.31,251.66,4.81-9.23,6.64-11,11.17-25.76-117.74-71.29-221.83-165.03-305.09-276.93-12.59,4.97-25.29,10-36.49,17.6-11.2,7.6-20.93,18.08-30.89,33.43Z"/>
            <g class="cls-11">
              <path class="cls-5" d="M393.98,1254.76c23.61-18.13,33.78-53.22,62.07-62.49,11.07-3.63,23.11-2.45,34.6-.51,55.33,9.36,109.36,37.7,139.85,84.82,6.54,10.11,12.04,22.86,7.12,33.84-5.51,12.31-21.15,16.05-34.64,16.23-17.94.25-35.73-3-53.33-6.48-56.49-11.18-115.88-26.85-155.67-65.41Z"/>
            </g>
          </g>
          <polygon class="cls-4" points="573.55 1312.96 609.34 1307.7 584.24 1288.12 573.55 1312.96"/>
          <path class="cls-8" d="M517.86,1304.7h0c-9.36,13.48-26.56,19.35-42.04,13.89-38.15-13.46-105.59-42.86-172.86-112.48"/>
          <polygon class="cls-4" points="226.39 1042.06 193.98 997.97 216.67 978.64 254.8 1020.36 226.39 1042.06"/>
        </g>
      </g>
      <text class="cls-7" transform="translate(527.77 827.05)"><tspan x="0" y="0">1</tspan></text>
    </g>
  </g>
</svg>