<?xml version="1.0" encoding="UTF-8" standalone="no"?>
<!-- Created with Inkscape (http://www.inkscape.org/) -->

<svg
   width="219.07823mm"
   height="322.54013mm"
   viewBox="0 0 219.07823 322.54013"
   version="1.1"
   id="svg1"
   xmlns:inkscape="http://www.inkscape.org/namespaces/inkscape"
   xmlns:sodipodi="http://sodipodi.sourceforge.net/DTD/sodipodi-0.dtd"
   xmlns="http://www.w3.org/2000/svg"
   xmlns:svg="http://www.w3.org/2000/svg">
  <sodipodi:namedview
     id="namedview1"
     pagecolor="#ffffff"
     bordercolor="#000000"
     borderopacity="0.25"
     inkscape:showpageshadow="2"
     inkscape:pageopacity="0.0"
     inkscape:pagecheckerboard="0"
     inkscape:deskcolor="#d1d1d1"
     inkscape:document-units="mm">
    <inkscape:page
       x="0"
       y="0"
       width="219.07823"
       height="322.54013"
       id="page2"
       margin="0"
       bleed="0" />
  </sodipodi:namedview>
  <defs
     id="defs1" />
  <g
     inkscape:label="Layer 1"
     inkscape:groupmode="layer"
     id="layer1"
     transform="translate(8.8826423,6.0679299)">
    <path
       class="st46"
       d="m 212.31309,317.00137 c -4.10104,-22.51604 -39.60813,-74.13625 -45.29667,-80.88312 -7.01146,-8.30792 -11.50937,-13.62605 -19.34104,-15.53105 -14.68437,-3.59833 -22.96583,9.9748 -39.52875,5.5298 -2.38125,-0.635 -15.822113,-4.2598 -17.118573,-11.95917 -2.275416,-13.46729 34.660453,-26.64354 32.305663,-33.49625 -1.74625,-5.10646 -24.050663,-3.20146 -37.650246,-0.82021 -19.473333,3.43958 -27.781249,9.04875 -39.555208,4.47146 C 44.6466,183.73075 34.248475,179.70908 33.163683,172.22137 31.6291,161.58512 50.070558,151.82199 52.2666,150.65783 c 15.742708,-8.33438 33.681458,-7.35542 44.714587,-6.74688 6.138343,0.3175 10.424613,1.03188 10.477533,0.68792 0.13229,-0.89959 -29.315871,-11.77396 -66.331078,-14.44625 C 29.671183,129.33241 16.3891,129.20012 5.2501393,119.88678 2.4720142,117.55845 -3.7721522,112.34616 -3.5869438,105.54637 -3.2959022,94.804282 12.949516,87.263658 22.871392,84.803033 c 2.619375,-0.661459 12.54125,-2.910417 28.257499,1.137708 24.500417,6.270625 36.67125,21.272499 38.285208,19.579169 2.010838,-2.11667 -12.594166,-30.532919 -39.899166,-40.719377 -8.440208,-3.148542 -15.24,-3.518959 -21.9075,-10.424584 C 22.1041,48.660949 17.315142,39.056575 18.823267,27.996992 20.67535,14.450325 30.861808,7.1478243 34.248475,5.0046993 43.985142,-1.1600917 58.14035,-3.1180087 68.1416,2.8086583 80.735766,10.269908 79.227641,25.748033 88.726183,54.349491 c 6.164794,18.57375 13.705427,32.887708 19.208787,42.201041 0.15875,-9.604374 -0.34396,-20.875624 -2.19605,-33.363957 -1.93146,-13.123334 -5.10648,-16.483542 -6.191283,-28.019375 -1.19062,-12.54125 -2.61937,-27.7812507 7.143783,-35.77166673 6.37646,-5.21229197 16.45709,-6.48229197 23.9448,-2.91041697 12.96458,6.19125 14.20812,25.0295837 14.71083,32.9406257 1.16416,18.018124 -5.3975,23.759582 -11.82688,51.593749 -5.63562,24.473959 -6.05895,43.814999 -4.7625,44.053129 1.42875,0.26458 2.8575,-22.48959 17.25084,-45.534796 7.99041,-12.779375 15.02833,-27.701875 24.15645,-26.961041 9.23396,0.740833 17.96521,16.8275 16.72167,30.771041 -1.05833,12.144375 -8.99583,15.134167 -21.82812,34.184166 -13.94355,20.69042 -22.3573,43.6298 -19.34105,45.58772 1.77271,1.16416 7.80521,-4.84188 18.28271,-15.26647 15.63688,-15.5575 18.20334,-21.24604 23.33625,-20.6375 7.40834,0.84667 12.62063,13.97 13.335,23.57438 0.15875,2.16959 0.0529,3.94229 -0.23812,5.52979 -1.40229,7.64646 -3.62479,13.09688 -4.31271,14.47271 -3.88938,8.09625 -7.59354,30.77104 -2.93688,51.30271 4.15396,18.36208 14.2875,31.75 22.25146,40.005 -9.55146,5.74146 6.42938,49.13312 -3.12208,54.84812 z"
       id="path14"
       style="opacity:0.3;fill:#3b9134;stroke-width:0.264583" />
  </g>
</svg>
